<?xml version="1.0" ?><svg data-name="Layer 1" id="Layer_1" viewBox="0 0 512 512" xmlns="http://www.w3.org/2000/svg"><defs><style>.cls-1{fill:#001534;}.cls-2{fill:#e5f0fe;}</style></defs><rect class="cls-1" height="419.17" rx="96.06" width="432" x="40" y="46.42"/><rect class="cls-1" height="379.17" rx="76.06" width="392" x="60" y="66.42"/><path class="cls-2" d="M133.31,167.21c0-1.52.25-2.28,1.52-2.54,8.9-.25,33.79-.76,51.83-.76,54.11,0,63,27.69,63,44.46,0,17.27-9.15,27.69-15.5,32.26,9.4,4.82,23.63,15.75,23.63,39.12,0,31-26.93,51.57-70.62,51.57-24.65,0-42.68-.26-52.08-.51a2,2,0,0,1-1.78-2.29Zm34.55,62.24h17.27a213.77,213.77,0,0,1,22.61,1.27c4.57-4.06,7.62-8.89,7.62-17.27,0-13-9.65-19.82-29-19.82-7.87,0-13,.26-18.54.51Zm0,71.89c5.33.25,10.92.51,18.54.51,21.85.25,34.81-6.86,34.81-21.59,0-8.64-3.56-16-15.5-19.06a70,70,0,0,0-16-1.52H167.86Z"/><path class="cls-2" d="M310.61,277c1.27,14.48,11.43,26.42,36.33,26.42,11.43,0,21.59-1.78,31.25-5.84.76-.51,1.52-.25,1.52,1.27v24.13c0,1.78-.51,2.54-1.78,3.05-10.16,4.83-21.34,7.37-38.87,7.37-47.75,0-64.52-32.77-64.52-64.27C274.54,234,296.13,202,336,202c38.36,0,53.6,29.72,53.6,54.87,0,7.87-.51,14.22-1.27,17a2.2,2.2,0,0,1-2,2c-3.3.51-12.95,1-26.16,1Zm33-24.64c8.13,0,11.68-.25,12.7-.5V250c0-6.1-4.83-20.07-21.59-20.07-16,0-22.87,11.94-24.39,22.35Z"/><rect class="cls-2" height="16.57" width="86.02" x="285.69" y="163.92"/></svg>