<?xml version="1.0" ?><!DOCTYPE svg  PUBLIC '-//W3C//DTD SVG 1.1//EN'  'http://www.w3.org/Graphics/SVG/1.1/DTD/svg11.dtd'><svg enable-background="new 0 0 512 512" id="Layer_1" version="1.1" viewBox="0 0 512 512" xml:space="preserve" xmlns="http://www.w3.org/2000/svg" xmlns:xlink="http://www.w3.org/1999/xlink"><g><path d="M255.9,504.1C121.7,505.3,10.1,395.5,10.1,258.8C10.2,123.1,119.7,13.2,256,13.2   c136.1,0,245.7,111.2,245.3,246.6C500.9,393.9,390.5,505.2,255.9,504.1z M257.8,468.2c22.6,0.9,46-4,68.7-12   c14.1-5,11.2-2.4,8.9-15.5c-4.4-25.6-11.1-50.6-18.3-75.5c-6.6-22.9-14.3-45.3-22.4-67.7c-1.4-3.8-3.1-4.5-6.9-3.1   c-16,5.8-31.4,12.7-46.4,20.6c-33.7,17.9-63.2,41.1-88,70.2c-9.5,11.2-18,23-25,35.9c-1.4,2.5-0.8,3.7,1.3,5.2   c9.6,7.2,19.7,13.7,30.4,19.1C190.2,460.7,222.1,468.9,257.8,468.2z M46.1,265.6c0.7,12.5,2.1,27.6,5.8,42.6   c7.6,30.7,21.5,58.3,41,83c6.2,7.8,6.3,7.7,11.6-0.1c16.5-24.5,35.6-46.8,57.6-66.7c21.7-19.7,45.6-36.2,71.8-49.2   c13.3-6.6,27-12.1,41.3-16.2c1.8-0.5,3.4-1,2.2-3.3c-4.8-10.1-9.6-20.1-14.4-30.2c-1.3-2.7-3.3-3-5.8-2c-1.2,0.5-2.5,1-3.7,1.4   c-38.3,10.3-77,17.9-116.4,22.3c-26.8,3-53.7,4.9-80.6,5C46,252.2,46,252.1,46.1,265.6z M58.3,215.8c9.3-1.2,19.8-0.3,30.2-1.1   c23.9-1.7,47.6-4.4,71.3-7.6c26.7-3.7,52.9-9.7,79.1-15.6c4-0.9,4.8-2.6,2.6-6.2c-22.4-38.3-46.2-75.7-72.2-111.8   c-2.6-3.6-4.4-3.6-8-1.8c-29,14.4-53,34.9-72.6,60.4c-17.8,23.2-30.2,49.2-36.8,77.8C50.6,215.8,50.8,215.8,58.3,215.8z M254.1,49   c-13.3,0.6-28.3,1.7-43.1,4.9c-3.7,0.8-4.2,1.7-1.8,5c15.9,21.7,31.1,43.9,45.3,66.9c9.6,15.6,19.3,31.1,27.7,47.4   c1.6,3.1,3.3,4,7,2.5c13.8-5.6,27.2-11.8,40-19.2c23.3-13.5,44.7-29.4,61.8-50.6c2.8-3.5,2.5-5.7-0.8-8.2   c-6.7-4.9-13.2-10-20.2-14.6C335.3,60.4,297.1,49.7,254.1,49z M465.1,249.8c-0.1-10.5-1.3-18.6-2.7-26.6c-6-34.2-19.7-65-40.7-92.6   c-3.5-4.6-3.9-4.7-7.6-0.4c-17.5,21.1-38.7,37.8-61.8,52.2c-15.3,9.5-31.2,17.7-47.9,24.6c-2.2,0.9-3.8,1.4-2.3,4.5   c5.5,11.7,10.8,23.5,16.1,35.4c0.9,2,1.6,3.3,4.3,2.8c12-2,24.1-2.3,36.3-2.6c18-0.5,35.9,0.4,53.8,2c14.5,1.3,29.1,2.8,43.4,5.8   C465.3,256.8,465.2,257,465.1,249.8z M462.6,293.8c0.6-1.6-1.1-1.9-2.5-2.3c-5.4-1.5-10.8-3.3-16.4-4.4   c-15.1-3.2-30.4-5.5-45.8-6.5c-20.3-1.3-40.5-0.9-60.7,1.5c-4,0.5-4.8,2.2-3.4,6c3.4,9,6.4,18.2,9.4,27.3   c7.7,23.5,14.4,47.4,20.1,71.4c3.3,13.7,5.8,27.6,8.7,41.4c0.6,2.7,0.9,4.4,4.3,2c11.8-8.4,22.7-17.9,32.7-28.4   c17.9-19,31.4-40.8,41.3-64.9C456,323.4,459.7,309,462.6,293.8z" fill="#A7A7A7"/></g></svg>